<svg width="124" height="124" viewBox="0 0 124 124" fill="none" xmlns="http://www.w3.org/2000/svg">
<rect width="124" height="124" rx="18" fill="#121212"/>
<path d="M66.8332 94.9508C62.281 94.9508 58.0457 94.1729 54.1273 92.617C50.2666 91.0036 46.8668 88.7563 43.928 85.8751C41.0468 82.994 38.7995 79.6518 37.1861 75.8487C35.5726 71.9879 34.7659 67.8391 34.7659 63.4021C34.7659 58.9651 35.5726 54.845 37.1861 51.0419C38.7995 47.1812 41.0468 43.839 43.928 41.0155C46.8092 38.1919 50.1801 36.0023 54.0409 34.4464C57.9592 32.833 62.1945 32.0263 66.7468 32.0263C71.5871 32.0263 75.8801 32.8042 79.6256 34.36C83.4287 35.9158 86.742 38.0479 89.5656 40.7562L80.4899 49.9183C78.8765 48.1896 76.9173 46.8354 74.6123 45.8558C72.365 44.8762 69.7432 44.3864 66.7468 44.3864C64.0961 44.3864 61.6471 44.8474 59.3998 45.7694C57.2101 46.6337 55.3086 47.9015 53.6951 49.5725C52.1393 51.2436 50.9004 53.2604 49.9784 55.623C49.1141 57.9855 48.6819 60.5786 48.6819 63.4021C48.6819 66.2832 49.1141 68.9051 49.9784 71.2677C50.9004 73.6302 52.1393 75.647 53.6951 77.3181C55.3086 78.9892 57.2101 80.2857 59.3998 81.2077C61.6471 82.1296 64.0961 82.5906 66.7468 82.5906C69.8584 82.5906 72.5667 82.1008 74.8717 81.1212C77.1766 80.1416 79.1646 78.7875 80.8356 77.0588L89.9977 86.2209C87.059 88.9292 83.688 91.0612 79.8849 92.617C76.1394 94.1729 71.7888 94.9508 66.8332 94.9508Z" fill="white"/>
</svg>
